<?xml version="1.0" encoding="UTF-8"?>
<svg version="1.1" xmlns="http://www.w3.org/2000/svg" width="1007" height="1007">
<path d="M0 0 C2.03489738 -0.0001554 4.06979504 -0.00165112 6.10469055 -0.00440979 C10.34312223 -0.00578496 14.58121188 0.00661858 18.81958008 0.02954102 C24.2224957 0.05797741 29.62484659 0.05516142 35.02780437 0.0424509 C39.22055293 0.03546234 43.41317335 0.04331828 47.60590553 0.05570793 C49.59719156 0.06018774 51.58849151 0.06059 53.57977867 0.05664253 C63.97426735 0.04567394 73.64925104 0.13299693 83.61328125 3.49609375 C84.91449165 3.91496605 84.91449165 3.91496605 86.24198914 4.34230042 C105.4456757 10.82001792 119.55869904 27.47954967 128.3984375 45.04296875 C134.78832037 59.17293087 136.81468559 73.20432217 136.67578125 88.55859375 C136.67126953 89.51958984 136.66675781 90.48058594 136.66210938 91.47070312 C136.65045831 93.81256797 136.6341015 96.15429556 136.61328125 98.49609375 C137.42147432 98.49495459 138.2296674 98.49381543 139.06235117 98.49264175 C187.00333812 98.42545143 234.94432006 98.37400574 282.88534471 98.34289776 C288.64662637 98.33914581 294.40790794 98.33526283 300.16918945 98.33129883 C301.88958057 98.33011843 301.88958057 98.33011843 303.64472706 98.32891419 C322.1954215 98.31587396 340.74608794 98.29222774 359.2967658 98.26463536 C378.34320515 98.23654267 397.38962988 98.21990933 416.4360891 98.21382827 C428.18090926 98.20971984 439.92565026 98.19676168 451.67044605 98.17234435 C459.73334857 98.15643944 467.7962104 98.15170413 475.85912745 98.15558962 C480.50522407 98.15750378 485.15118272 98.15464942 489.79725456 98.13847733 C494.06220802 98.1237413 498.32693241 98.12322894 502.59189702 98.13339707 C504.12382253 98.13465139 505.6557631 98.13096271 507.18765955 98.1214442 C533.06461361 97.97018381 555.23816179 104.94487164 573.98828125 123.43359375 C584.10481665 133.80856892 597.61328125 152.17927313 597.61328125 167.49609375 C598.55421631 167.47514648 599.49515137 167.45419922 600.46459961 167.43261719 C649.15278968 166.49086117 649.15278968 166.49086117 669.61328125 184.49609375 C670.73863281 185.46289062 670.73863281 185.46289062 671.88671875 186.44921875 C683.56274816 197.20869978 691.05721169 213.23457411 691.9921875 229.109375 C692.46545276 240.96094306 691.2549959 251.58226789 688.1953125 263.04296875 C687.83409957 264.43536017 687.47397219 265.82803358 687.11483765 267.22096252 C686.15999666 270.90664501 685.18666291 274.58715901 684.20672226 278.26623917 C683.62279471 280.46034692 683.04235683 282.65534743 682.46304321 284.85067749 C679.81616092 294.8739674 677.12479897 304.88505116 674.42335892 314.89375305 C673.2362622 319.29476726 672.05269471 323.69673043 670.86889648 328.09863281 C669.35665822 333.72119074 667.84421217 339.34369217 666.33049011 344.96585083 C661.25006087 363.83581679 656.18865057 382.71086381 651.13095188 401.58693314 C649.4958023 407.68880241 647.85878014 413.79016553 646.22018147 419.89110947 C640.73834836 440.30210878 635.28013442 460.71867909 629.90023994 481.15681076 C628.33095304 487.11325005 626.75514657 493.06796859 625.17928982 499.02267265 C623.70206649 504.60823418 622.23610322 510.19658644 620.77893639 515.78741169 C619.87815773 519.23245779 618.96658138 522.67458165 618.05217743 526.11603355 C617.63742043 527.68585725 617.22703228 529.25684403 616.82175446 530.82914162 C609.26818354 560.10279029 594.00115458 585.52344406 567.61328125 601.49609375 C552.05761764 610.24290603 535.95550954 614.66442983 518.08403778 614.62752151 C516.68447367 614.63060047 516.68447367 614.63060047 515.25663555 614.63374162 C512.13067173 614.63939527 509.0047522 614.63795638 505.87878418 614.63653564 C503.61464211 614.63912022 501.35050049 614.64213363 499.0863595 614.64553905 C492.86445625 614.65360148 486.64256454 614.6553982 480.42065668 614.65613651 C474.39935048 614.65779818 468.37805021 614.66411715 462.35674731 614.67021492 C446.22878541 614.68625825 430.10082448 614.69217635 413.97285604 614.69696367 C406.33979997 614.69930133 398.70674465 614.70290417 391.07368916 614.70665905 C364.93310679 614.71949318 338.79252484 614.7302124 312.65193939 614.73366165 C311.01165633 614.73388328 309.37137328 614.73410507 307.73109022 614.734327 C306.08689906 614.73454764 304.44270791 614.73476812 302.79851675 614.73498845 C299.50011794 614.735431 296.20171912 614.73587811 292.90332031 614.73632812 C292.08551207 614.73643752 291.26770382 614.73654691 290.42511351 614.73665961 C263.91440657 614.74028933 237.403727 614.75620687 210.89303055 614.77951849 C182.84917213 614.80413307 154.80532935 614.81783525 126.76145983 614.81902957 C123.68094412 614.81920102 120.60042842 614.81941644 117.51991272 614.819664 C116.76143073 614.81971977 116.00294873 614.81977554 115.22148244 614.819833 C103.03309745 614.82098203 90.84474061 614.83199142 78.65636512 614.84655106 C66.39750432 614.86094129 54.13867947 614.8641388 41.87981254 614.85611108 C35.24297468 614.85205673 28.60621118 614.85311845 21.96937943 614.86716843 C15.88708295 614.87992648 9.80495167 614.87869293 3.72265536 614.86657771 C1.52881386 614.86462404 -0.66503941 614.86768381 -2.85886437 614.87642208 C-27.10733117 614.96684855 -48.64259514 611.72276135 -67.07421875 594.43359375 C-84.50028183 576.28559377 -86.71113293 553.73287605 -86.61618042 529.74223328 C-86.61578554 527.76648689 -86.61626507 525.79074017 -86.61753666 523.81499416 C-86.6184364 518.41805466 -86.6067909 513.02120587 -86.59294319 507.62428677 C-86.58015584 501.79116609 -86.57900434 495.9580409 -86.57624817 490.12490845 C-86.56887476 478.70966923 -86.55030587 467.29447493 -86.52728252 455.87925752 C-86.5086142 446.59770339 -86.49319279 437.31614951 -86.48004532 428.03458595 C-86.47622272 425.35754562 -86.47238534 422.6805053 -86.46854413 420.003465 C-86.46759001 419.33784679 -86.46663589 418.67222858 -86.46565287 417.98644013 C-86.4387122 399.27945734 -86.40734356 380.57248621 -86.36707878 361.86552715 C-86.36556476 361.16109003 -86.36405075 360.4566529 -86.36249085 359.73086919 C-86.35480924 356.16092897 -86.34709451 352.59098882 -86.33937179 349.02104869 C-86.33783896 348.3121137 -86.33630613 347.60317871 -86.33472685 346.87276085 C-86.33162684 345.43912419 -86.32852416 344.00548753 -86.32541879 342.57185088 C-86.27722409 320.26803946 -86.2452307 297.96425459 -86.22558594 275.66040039 C-86.20347436 250.57122802 -86.16791106 225.48212323 -86.11344635 200.39299899 C-86.08487173 187.12014175 -86.06249777 173.84732749 -86.05596542 160.5744381 C-86.05028541 149.27526448 -86.03078888 137.97621794 -85.99358086 126.67710241 C-85.97500313 120.91701857 -85.96271102 115.15710932 -85.96783257 109.39699364 C-85.9723656 104.11478814 -85.9582938 98.83295769 -85.92995669 93.55082927 C-85.92292462 91.6492212 -85.92245919 89.74757386 -85.92956387 87.84596606 C-86.01915809 61.06141971 -78.47666876 38.95969047 -59.38671875 19.49609375 C-58.78601563 18.87089844 -58.1853125 18.24570313 -57.56640625 17.6015625 C-41.4958329 2.19190018 -21.11614358 -0.13283794 0 0 Z " fill="#FED8A0" transform="translate(201.38671875,197.50390625)"/>
<path d="M0 0 C2.03489738 -0.0001554 4.06979504 -0.00165112 6.10469055 -0.00440979 C10.34312223 -0.00578496 14.58121188 0.00661858 18.81958008 0.02954102 C24.2224957 0.05797741 29.62484659 0.05516142 35.02780437 0.0424509 C39.22055293 0.03546234 43.41317335 0.04331828 47.60590553 0.05570793 C49.59719156 0.06018774 51.58849151 0.06059 53.57977867 0.05664253 C63.97426735 0.04567394 73.64925104 0.13299693 83.61328125 3.49609375 C84.91449165 3.91496605 84.91449165 3.91496605 86.24198914 4.34230042 C105.4456757 10.82001792 119.55869904 27.47954967 128.3984375 45.04296875 C134.78832037 59.17293087 136.81468559 73.20432217 136.67578125 88.55859375 C136.67126953 89.51958984 136.66675781 90.48058594 136.66210938 91.47070312 C136.65045831 93.81256797 136.6341015 96.15429556 136.61328125 98.49609375 C137.42147432 98.49495459 138.2296674 98.49381543 139.06235117 98.49264175 C187.00333812 98.42545143 234.94432006 98.37400574 282.88534471 98.34289776 C288.64662637 98.33914581 294.40790794 98.33526283 300.16918945 98.33129883 C301.88958057 98.33011843 301.88958057 98.33011843 303.64472706 98.32891419 C322.1954215 98.31587396 340.74608794 98.29222774 359.2967658 98.26463536 C378.34320515 98.23654267 397.38962988 98.21990933 416.4360891 98.21382827 C428.18090926 98.20971984 439.92565026 98.19676168 451.67044605 98.17234435 C459.73334857 98.15643944 467.7962104 98.15170413 475.85912745 98.15558962 C480.50522407 98.15750378 485.15118272 98.15464942 489.79725456 98.13847733 C494.06220802 98.1237413 498.32693241 98.12322894 502.59189702 98.13339707 C504.12382253 98.13465139 505.6557631 98.13096271 507.18765955 98.1214442 C533.06461361 97.97018381 555.23816179 104.94487164 573.98828125 123.43359375 C584.10481665 133.80856892 597.61328125 152.17927313 597.61328125 167.49609375 C598.55421631 167.47514648 599.49515137 167.45419922 600.46459961 167.43261719 C649.15278968 166.49086117 649.15278968 166.49086117 669.61328125 184.49609375 C670.73863281 185.46289062 670.73863281 185.46289062 671.88671875 186.44921875 C683.56274816 197.20869978 691.05721169 213.23457411 691.9921875 229.109375 C692.46545276 240.96094306 691.2549959 251.58226789 688.1953125 263.04296875 C687.83409957 264.43536017 687.47397219 265.82803358 687.11483765 267.22096252 C686.15999666 270.90664501 685.18666291 274.58715901 684.20672226 278.26623917 C683.62279471 280.46034692 683.04235683 282.65534743 682.46304321 284.85067749 C679.81616092 294.8739674 677.12479897 304.88505116 674.42335892 314.89375305 C673.2362622 319.29476726 672.05269471 323.69673043 670.86889648 328.09863281 C669.35665822 333.72119074 667.84421217 339.34369217 666.33049011 344.96585083 C661.25006087 363.83581679 656.18865057 382.71086381 651.13095188 401.58693314 C649.4958023 407.68880241 647.85878014 413.79016553 646.22018147 419.89110947 C640.73834836 440.30210878 635.28013442 460.71867909 629.90023994 481.15681076 C628.33095304 487.11325005 626.75514657 493.06796859 625.17928982 499.02267265 C623.70206649 504.60823418 622.23610322 510.19658644 620.77893639 515.78741169 C619.87815773 519.23245779 618.96658138 522.67458165 618.05217743 526.11603355 C617.63742043 527.68585725 617.22703228 529.25684403 616.82175446 530.82914162 C609.26818354 560.10279029 594.00115458 585.52344406 567.61328125 601.49609375 C552.05761764 610.24290603 535.95550954 614.66442983 518.08403778 614.62752151 C516.68447367 614.63060047 516.68447367 614.63060047 515.25663555 614.63374162 C512.13067173 614.63939527 509.0047522 614.63795638 505.87878418 614.63653564 C503.61464211 614.63912022 501.35050049 614.64213363 499.0863595 614.64553905 C492.86445625 614.65360148 486.64256454 614.6553982 480.42065668 614.65613651 C474.39935048 614.65779818 468.37805021 614.66411715 462.35674731 614.67021492 C446.22878541 614.68625825 430.10082448 614.69217635 413.97285604 614.69696367 C406.33979997 614.69930133 398.70674465 614.70290417 391.07368916 614.70665905 C364.93310679 614.71949318 338.79252484 614.7302124 312.65193939 614.73366165 C311.01165633 614.73388328 309.37137328 614.73410507 307.73109022 614.734327 C306.08689906 614.73454764 304.44270791 614.73476812 302.79851675 614.73498845 C299.50011794 614.735431 296.20171912 614.73587811 292.90332031 614.73632812 C292.08551207 614.73643752 291.26770382 614.73654691 290.42511351 614.73665961 C263.91440657 614.74028933 237.403727 614.75620687 210.89303055 614.77951849 C182.84917213 614.80413307 154.80532935 614.81783525 126.76145983 614.81902957 C123.68094412 614.81920102 120.60042842 614.81941644 117.51991272 614.819664 C116.76143073 614.81971977 116.00294873 614.81977554 115.22148244 614.819833 C103.03309745 614.82098203 90.84474061 614.83199142 78.65636512 614.84655106 C66.39750432 614.86094129 54.13867947 614.8641388 41.87981254 614.85611108 C35.24297468 614.85205673 28.60621118 614.85311845 21.96937943 614.86716843 C15.88708295 614.87992648 9.80495167 614.87869293 3.72265536 614.86657771 C1.52881386 614.86462404 -0.66503941 614.86768381 -2.85886437 614.87642208 C-27.10733117 614.96684855 -48.64259514 611.72276135 -67.07421875 594.43359375 C-84.50028183 576.28559377 -86.71113293 553.73287605 -86.61618042 529.74223328 C-86.61578554 527.76648689 -86.61626507 525.79074017 -86.61753666 523.81499416 C-86.6184364 518.41805466 -86.6067909 513.02120587 -86.59294319 507.62428677 C-86.58015584 501.79116609 -86.57900434 495.9580409 -86.57624817 490.12490845 C-86.56887476 478.70966923 -86.55030587 467.29447493 -86.52728252 455.87925752 C-86.5086142 446.59770339 -86.49319279 437.31614951 -86.48004532 428.03458595 C-86.47622272 425.35754562 -86.47238534 422.6805053 -86.46854413 420.003465 C-86.46759001 419.33784679 -86.46663589 418.67222858 -86.46565287 417.98644013 C-86.4387122 399.27945734 -86.40734356 380.57248621 -86.36707878 361.86552715 C-86.36556476 361.16109003 -86.36405075 360.4566529 -86.36249085 359.73086919 C-86.35480924 356.16092897 -86.34709451 352.59098882 -86.33937179 349.02104869 C-86.33783896 348.3121137 -86.33630613 347.60317871 -86.33472685 346.87276085 C-86.33162684 345.43912419 -86.32852416 344.00548753 -86.32541879 342.57185088 C-86.27722409 320.26803946 -86.2452307 297.96425459 -86.22558594 275.66040039 C-86.20347436 250.57122802 -86.16791106 225.48212323 -86.11344635 200.39299899 C-86.08487173 187.12014175 -86.06249777 173.84732749 -86.05596542 160.5744381 C-86.05028541 149.27526448 -86.03078888 137.97621794 -85.99358086 126.67710241 C-85.97500313 120.91701857 -85.96271102 115.15710932 -85.96783257 109.39699364 C-85.9723656 104.11478814 -85.9582938 98.83295769 -85.92995669 93.55082927 C-85.92292462 91.6492212 -85.92245919 89.74757386 -85.92956387 87.84596606 C-86.01915809 61.06141971 -78.47666876 38.95969047 -59.38671875 19.49609375 C-58.78601563 18.87089844 -58.1853125 18.24570313 -57.56640625 17.6015625 C-41.4958329 2.19190018 -21.11614358 -0.13283794 0 0 Z M50.36328125 186.24609375 C49.6983667 186.59260986 49.03345215 186.93912598 48.34838867 187.29614258 C27.32894915 198.5209043 11.24468886 216.70839955 3.640625 239.3984375 C2.75076539 242.39921967 1.91940271 245.40926814 1.11328125 248.43359375 C0.81558838 249.52188477 0.51789551 250.61017578 0.21118164 251.73144531 C-1.81312794 259.18753415 -3.71019798 266.67232406 -5.54296875 274.17749023 C-7.23540595 281.05301637 -9.17845647 287.84362622 -11.15649414 294.64160156 C-12.86742419 300.56375638 -14.42487609 306.50790071 -15.88671875 312.49609375 C-17.55248007 319.31373559 -19.36730706 326.06875041 -21.32421875 332.80859375 C-24.87540754 345.05446368 -28.05138044 357.39046715 -31.21875 369.74023438 C-34.63611418 383.05859205 -38.14781069 396.33670402 -41.89990234 409.56494141 C-43.92430485 416.73883928 -45.77657699 423.94038233 -47.54345703 431.18139648 C-49.23684588 438.05533673 -51.1788175 444.84486699 -53.15649414 451.64160156 C-54.86742409 457.56375601 -56.42488912 463.50789731 -57.88671875 469.49609375 C-59.78980741 477.28571188 -61.91775251 484.98983761 -64.1496582 492.69116211 C-66.52332853 500.90288187 -68.72351392 509.15453534 -70.85498047 517.43212891 C-71.34211266 519.3229533 -71.83483794 521.21233447 -72.328125 523.1015625 C-76.92952966 540.99591394 -76.8902501 557.81276956 -68.38671875 574.49609375 C-59.70760346 588.68966875 -47.45064144 597.96472039 -31.38671875 602.49609375 C-25.48002794 603.3939228 -19.75171065 603.63973862 -13.78383255 603.62752151 C-12.84283793 603.62957415 -11.90184331 603.63162678 -10.93233371 603.63374162 C-7.77935913 603.63939582 -4.62642845 603.63795632 -1.47344971 603.63653564 C0.81004233 603.63912017 3.09353392 603.64213358 5.37702489 603.64553905 C11.65225687 603.65360176 17.92747742 603.65539821 24.20271397 603.65613651 C30.27535586 603.65779811 36.34799142 603.66411694 42.42063018 603.67021492 C58.6845063 603.68625733 74.94838145 603.69217588 91.21226406 603.69696367 C98.90778122 603.69930104 106.60329765 603.70290381 114.29881424 603.70665905 C140.64803444 603.71949201 166.99725424 603.73021219 193.34647751 603.73366165 C194.99976733 603.73388328 196.65305715 603.73410507 198.30634697 603.734327 C199.96359027 603.73454764 201.62083358 603.73476812 203.27807689 603.73498845 C206.6027023 603.735431 209.92732771 603.73587812 213.25195312 603.73632812 C214.07626378 603.73643752 214.90057443 603.73654691 215.74986419 603.73665961 C242.48253737 603.74029084 269.21518344 603.75621466 295.94784623 603.77951849 C324.22034059 603.80411954 352.49281946 603.81783458 380.76532483 603.81902957 C383.86936013 603.81920102 386.97339543 603.81941645 390.07743073 603.819664 C390.84171501 603.81971977 391.6059993 603.81977554 392.39344372 603.819833 C404.68675986 603.82098308 416.98004815 603.83200129 429.27335489 603.84655106 C441.63072468 603.86092371 453.98805879 603.86414866 466.34543464 603.85611108 C473.0384944 603.85205025 479.73144911 603.85314832 486.42450333 603.86716843 C492.55346755 603.87988959 498.68226758 603.87872533 504.81123152 603.86657771 C507.02653601 603.86461767 509.24185206 603.86771331 511.4571403 603.87642208 C527.26169638 603.97420753 527.26169638 603.97420753 542.61328125 600.49609375 C544.33998047 599.96628906 544.33998047 599.96628906 546.1015625 599.42578125 C569.91391278 590.53320231 587.95536864 574.03761231 598.7421875 550.96484375 C601.92314404 543.70147117 603.86938903 536.0560771 605.85693359 528.39892578 C606.6374028 525.40351622 607.44415941 522.41624505 608.2578125 519.4296875 C610.06390732 512.79070724 611.84084111 506.14412757 613.61328125 499.49609375 C613.93586914 498.28679199 614.25845703 497.07749023 614.59082031 495.83154297 C615.93871051 490.77794291 617.28616551 485.72422761 618.63232422 480.67016602 C621.06210261 471.55058533 623.51117038 462.43634043 625.96875 453.32421875 C628.19820004 445.05205118 630.40839699 436.77484003 632.61328125 428.49609375 C635.68993806 416.9455252 638.78528291 405.40015746 641.8984375 393.859375 C643.05643566 389.56626033 644.20971514 385.27191744 645.359375 380.9765625 C647.9013082 371.48946438 650.45661541 362.00887281 653.13696289 352.55981445 C656.53913841 340.56585299 659.68760714 328.51973372 662.76312256 316.43899536 C664.93303942 307.92248551 667.13877742 299.43035496 669.61328125 290.99609375 C672.11652123 282.35680816 674.54195904 273.69640104 676.86279297 265.00634766 C677.27167307 263.48796934 677.68740976 261.97141647 678.11083984 260.45703125 C683.12379383 242.48287335 683.53965379 224.89607683 675.05078125 207.74609375 C666.51090761 193.448275 654.42455483 184.47555381 638.61328125 179.49609375 C633.44363947 178.39905705 628.4438574 178.35297703 623.18678379 178.36187267 C621.76743878 178.35834433 621.76743878 178.35834433 620.31942013 178.3547447 C617.136565 178.34806744 613.95375082 178.34851254 610.77088928 178.34892273 C608.47063731 178.34562332 606.17038591 178.34189758 603.87013525 178.33778125 C597.53916993 178.32776198 591.20821409 178.32404457 584.87724197 178.32139194 C578.75345926 178.31836983 572.62968303 178.30974206 566.50590507 178.301848 C550.09889141 178.28101381 533.69187596 178.27053524 517.28485216 178.2617184 C509.52104827 178.25751024 501.75724515 178.25228846 493.99344191 178.24703387 C467.41030544 178.22914415 440.82716873 178.21414891 414.24402714 178.20671368 C412.57543064 178.20623892 410.90683414 178.20576303 409.23823765 178.20528601 C408.41077479 178.20504964 407.58331193 178.20481326 406.73077445 178.20456972 C402.53853387 178.20336854 398.3462933 178.20215309 394.15405273 178.20092773 C393.32209437 178.20068758 392.49013601 178.20044743 391.63296679 178.20020001 C364.66537923 178.19230896 337.69783569 178.16888089 310.73026734 178.13637179 C282.21017951 178.102054 253.69011742 178.08236072 225.1700086 178.07906944 C222.03752258 178.07865191 218.90503658 178.07817235 215.77255058 178.07764626 C214.61561443 178.07746147 214.61561443 178.07746147 213.43530582 178.07727295 C201.03646053 178.07494332 188.63766646 178.05929663 176.2388394 178.03880441 C163.76914678 178.01852249 151.2995155 178.01308028 138.82980943 178.02257504 C132.07763046 178.02732373 125.32562721 178.02521844 118.57346916 178.0058136 C112.38686519 177.98818784 106.20054822 177.98917534 100.01394122 178.00471089 C97.78102513 178.0070878 95.5480892 178.00275918 93.31520344 177.99088224 C77.98697132 177.91442862 64.16962977 178.87435286 50.36328125 186.24609375 Z " fill="#FAC178" transform="translate(201.38671875,197.50390625)"/>
<path d="M0 0 C2.03489738 -0.0001554 4.06979504 -0.00165112 6.10469055 -0.00440979 C10.34312223 -0.00578496 14.58121188 0.00661858 18.81958008 0.02954102 C24.2224957 0.05797741 29.62484659 0.05516142 35.02780437 0.0424509 C39.22055293 0.03546234 43.41317335 0.04331828 47.60590553 0.05570793 C49.59719156 0.06018774 51.58849151 0.06059 53.57977867 0.05664253 C63.97426735 0.04567394 73.64925104 0.13299693 83.61328125 3.49609375 C84.91449165 3.91496605 84.91449165 3.91496605 86.24198914 4.34230042 C105.4456757 10.82001792 119.55869904 27.47954967 128.3984375 45.04296875 C134.78832037 59.17293087 136.81468559 73.20432217 136.67578125 88.55859375 C136.67126953 89.51958984 136.66675781 90.48058594 136.66210938 91.47070312 C136.65045831 93.81256797 136.6341015 96.15429556 136.61328125 98.49609375 C137.42147432 98.49495459 138.2296674 98.49381543 139.06235117 98.49264175 C187.00333812 98.42545143 234.94432006 98.37400574 282.88534471 98.34289776 C288.64662637 98.33914581 294.40790794 98.33526283 300.16918945 98.33129883 C301.88958057 98.33011843 301.88958057 98.33011843 303.64472706 98.32891419 C322.1954215 98.31587396 340.74608794 98.29222774 359.2967658 98.26463536 C378.34320515 98.23654267 397.38962988 98.21990933 416.4360891 98.21382827 C428.18090926 98.20971984 439.92565026 98.19676168 451.67044605 98.17234435 C459.73334857 98.15643944 467.7962104 98.15170413 475.85912745 98.15558962 C480.50522407 98.15750378 485.15118272 98.15464942 489.79725456 98.13847733 C494.06220802 98.1237413 498.32693241 98.12322894 502.59189702 98.13339707 C504.12382253 98.13465139 505.6557631 98.13096271 507.18765955 98.1214442 C533.06461361 97.97018381 555.23816179 104.94487164 573.98828125 123.43359375 C584.10481665 133.80856892 597.61328125 152.17927313 597.61328125 167.49609375 C598.55421631 167.47514648 599.49515137 167.45419922 600.46459961 167.43261719 C649.15278968 166.49086117 649.15278968 166.49086117 669.61328125 184.49609375 C670.73863281 185.46289062 670.73863281 185.46289062 671.88671875 186.44921875 C683.56274816 197.20869978 691.05721169 213.23457411 691.9921875 229.109375 C692.46545276 240.96094306 691.2549959 251.58226789 688.1953125 263.04296875 C687.83409957 264.43536017 687.47397219 265.82803358 687.11483765 267.22096252 C686.15999666 270.90664501 685.18666291 274.58715901 684.20672226 278.26623917 C683.62279471 280.46034692 683.04235683 282.65534743 682.46304321 284.85067749 C679.81616092 294.8739674 677.12479897 304.88505116 674.42335892 314.89375305 C673.2362622 319.29476726 672.05269471 323.69673043 670.86889648 328.09863281 C669.35665822 333.72119074 667.84421217 339.34369217 666.33049011 344.96585083 C661.25006087 363.83581679 656.18865057 382.71086381 651.13095188 401.58693314 C649.4958023 407.68880241 647.85878014 413.79016553 646.22018147 419.89110947 C640.73834836 440.30210878 635.28013442 460.71867909 629.90023994 481.15681076 C628.33095304 487.11325005 626.75514657 493.06796859 625.17928982 499.02267265 C623.70206649 504.60823418 622.23610322 510.19658644 620.77893639 515.78741169 C619.87815773 519.23245779 618.96658138 522.67458165 618.05217743 526.11603355 C617.63742043 527.68585725 617.22703228 529.25684403 616.82175446 530.82914162 C609.26818354 560.10279029 594.00115458 585.52344406 567.61328125 601.49609375 C552.05761764 610.24290603 535.95550954 614.66442983 518.08403778 614.62752151 C516.68447367 614.63060047 516.68447367 614.63060047 515.25663555 614.63374162 C512.13067173 614.63939527 509.0047522 614.63795638 505.87878418 614.63653564 C503.61464211 614.63912022 501.35050049 614.64213363 499.0863595 614.64553905 C492.86445625 614.65360148 486.64256454 614.6553982 480.42065668 614.65613651 C474.39935048 614.65779818 468.37805021 614.66411715 462.35674731 614.67021492 C446.22878541 614.68625825 430.10082448 614.69217635 413.97285604 614.69696367 C406.33979997 614.69930133 398.70674465 614.70290417 391.07368916 614.70665905 C364.93310679 614.71949318 338.79252484 614.7302124 312.65193939 614.73366165 C311.01165633 614.73388328 309.37137328 614.73410507 307.73109022 614.734327 C306.08689906 614.73454764 304.44270791 614.73476812 302.79851675 614.73498845 C299.50011794 614.735431 296.20171912 614.73587811 292.90332031 614.73632812 C292.08551207 614.73643752 291.26770382 614.73654691 290.42511351 614.73665961 C263.91440657 614.74028933 237.403727 614.75620687 210.89303055 614.77951849 C182.84917213 614.80413307 154.80532935 614.81783525 126.76145983 614.81902957 C123.68094412 614.81920102 120.60042842 614.81941644 117.51991272 614.819664 C116.76143073 614.81971977 116.00294873 614.81977554 115.22148244 614.819833 C103.03309745 614.82098203 90.84474061 614.83199142 78.65636512 614.84655106 C66.39750432 614.86094129 54.13867947 614.8641388 41.87981254 614.85611108 C35.24297468 614.85205673 28.60621118 614.85311845 21.96937943 614.86716843 C15.88708295 614.87992648 9.80495167 614.87869293 3.72265536 614.86657771 C1.52881386 614.86462404 -0.66503941 614.86768381 -2.85886437 614.87642208 C-27.10733117 614.96684855 -48.64259514 611.72276135 -67.07421875 594.43359375 C-84.50028183 576.28559377 -86.71113293 553.73287605 -86.61618042 529.74223328 C-86.61578554 527.76648689 -86.61626507 525.79074017 -86.61753666 523.81499416 C-86.6184364 518.41805466 -86.6067909 513.02120587 -86.59294319 507.62428677 C-86.58015584 501.79116609 -86.57900434 495.9580409 -86.57624817 490.12490845 C-86.56887476 478.70966923 -86.55030587 467.29447493 -86.52728252 455.87925752 C-86.5086142 446.59770339 -86.49319279 437.31614951 -86.48004532 428.03458595 C-86.47622272 425.35754562 -86.47238534 422.6805053 -86.46854413 420.003465 C-86.46759001 419.33784679 -86.46663589 418.67222858 -86.46565287 417.98644013 C-86.4387122 399.27945734 -86.40734356 380.57248621 -86.36707878 361.86552715 C-86.36556476 361.16109003 -86.36405075 360.4566529 -86.36249085 359.73086919 C-86.35480924 356.16092897 -86.34709451 352.59098882 -86.33937179 349.02104869 C-86.33783896 348.3121137 -86.33630613 347.60317871 -86.33472685 346.87276085 C-86.33162684 345.43912419 -86.32852416 344.00548753 -86.32541879 342.57185088 C-86.27722409 320.26803946 -86.2452307 297.96425459 -86.22558594 275.66040039 C-86.20347436 250.57122802 -86.16791106 225.48212323 -86.11344635 200.39299899 C-86.08487173 187.12014175 -86.06249777 173.84732749 -86.05596542 160.5744381 C-86.05028541 149.27526448 -86.03078888 137.97621794 -85.99358086 126.67710241 C-85.97500313 120.91701857 -85.96271102 115.15710932 -85.96783257 109.39699364 C-85.9723656 104.11478814 -85.9582938 98.83295769 -85.92995669 93.55082927 C-85.92292462 91.6492212 -85.92245919 89.74757386 -85.92956387 87.84596606 C-86.01915809 61.06141971 -78.47666876 38.95969047 -59.38671875 19.49609375 C-58.78601563 18.87089844 -58.1853125 18.24570313 -57.56640625 17.6015625 C-41.4958329 2.19190018 -21.11614358 -0.13283794 0 0 Z M-59.48046875 35.00390625 C-69.14541645 48.18723403 -75.51466789 64.22671364 -75.50976658 80.67062855 C-75.51092042 81.38551472 -75.51207427 82.10040089 -75.51326308 82.83695027 C-75.51591548 85.2387204 -75.51141889 87.64042384 -75.50697327 90.04219055 C-75.50740925 91.77892214 -75.50828466 93.51565367 -75.50956243 95.25238484 C-75.51180207 100.02975748 -75.50779333 104.80710776 -75.50278437 109.58447754 C-75.49847247 114.73440369 -75.49992682 119.88432854 -75.50068665 125.03425598 C-75.50121141 133.95851758 -75.49806955 142.88277187 -75.49244881 151.80703163 C-75.4843274 164.7100698 -75.48171793 177.61310444 -75.48046082 190.51614489 C-75.47827131 211.44964873 -75.47161395 232.38314867 -75.4621582 253.31665039 C-75.45298148 273.65356425 -75.44590191 293.99047706 -75.44165039 314.32739258 C-75.44138767 315.5806171 -75.44112494 316.83384163 -75.44085426 318.12504265 C-75.43954924 324.4119994 -75.43828553 330.69895616 -75.43704236 336.98591292 C-75.42667289 389.15597589 -75.40905731 441.32603463 -75.38671875 493.49609375 C-72.7825042 490.8918792 -72.53858893 488.82946032 -71.65234375 485.2578125 C-71.49387466 484.62948517 -71.33540558 484.00115784 -71.1721344 483.35379028 C-70.83178085 482.00234837 -70.49444838 480.65014275 -70.15982056 479.29727173 C-69.28010534 475.74263924 -68.37808728 472.19368422 -67.4765625 468.64453125 C-67.20841988 467.58619835 -67.20841988 467.58619835 -66.93486023 466.50648499 C-65.46685723 460.74084029 -63.87186573 455.01830161 -62.19921875 449.30859375 C-60.03932748 441.91362645 -58.10542162 434.48778723 -56.27832031 427.00415039 C-54.80864359 421.04074433 -53.16925049 415.14176168 -51.44921875 409.24609375 C-48.95748816 400.70164441 -46.73184079 392.1105869 -44.65454102 383.45605469 C-43.25426574 377.69763061 -41.67679837 372.01632382 -39.98046875 366.33984375 C-37.61912908 358.42782537 -35.52282395 350.46587267 -33.50708008 342.4597168 C-30.93799006 332.2654327 -28.35413567 322.08299874 -25.38671875 311.99609375 C-22.43531857 301.95862257 -19.87894746 291.82596051 -17.29949951 281.6882019 C-14.77098474 271.75951432 -12.16554838 261.86759549 -9.26904297 252.03833008 C-8.01489286 247.77395532 -6.9350543 243.53481252 -6.01171875 239.18359375 C-0.32228331 215.75650663 17.4615113 195.03368344 37.45849609 182.32324219 C57.11894016 170.48658821 76.92639793 168.19315808 99.4622345 168.21762085 C101.56885497 168.21261193 103.67547353 168.2067344 105.78208941 168.20006812 C111.54472729 168.18432625 117.30731633 168.18084064 123.06997311 168.17941952 C129.29408401 168.1757153 135.51816845 168.16055472 141.74226379 168.14680481 C152.51727556 168.12456024 163.29227223 168.10946089 174.0673008 168.09943771 C185.36325894 168.0888998 196.65919954 168.07425059 207.95514488 168.05415726 C209.01020071 168.05228396 209.01020071 168.05228396 210.08657079 168.05037281 C213.65889725 168.04400872 217.23122357 168.03757162 220.80354985 168.03110643 C246.08069401 167.98549105 271.35784387 167.94902317 296.63500977 167.91796875 C321.18547398 167.88778611 345.73592662 167.8534389 370.28637695 167.81347656 C371.04364752 167.81224556 371.80091808 167.81101456 372.58113624 167.80974625 C380.18622847 167.79737898 387.79132056 167.78492729 395.39641255 167.77241377 C410.88770259 167.7469261 426.37899353 167.72200174 441.87028503 167.69741821 C442.58248864 167.6962873 443.29469224 167.69515639 444.02847777 167.69399122 C491.55673225 167.61858559 539.08500541 167.55635068 586.61328125 167.49609375 C585.83116624 162.49395722 585.83116624 162.49395722 584.046875 157.796875 C583.73049072 157.15049072 583.41410645 156.50410645 583.08813477 155.83813477 C582.74580811 155.16838623 582.40348145 154.4986377 582.05078125 153.80859375 C581.69363037 153.10597412 581.33647949 152.40335449 580.96850586 151.67944336 C571.2004048 132.92957445 556.68982994 119.83480643 536.94140625 112.46875 C527.04314479 109.57594823 517.55369913 109.21511609 507.30111694 109.25558472 C505.65081517 109.25471156 504.00051367 109.25295856 502.35021365 109.25040638 C497.83494491 109.24595044 493.3197717 109.25391235 488.80451512 109.26396251 C483.92802648 109.27262005 479.05154299 109.26967522 474.17504883 109.26815796 C465.73268743 109.26711057 457.290357 109.27337196 448.84800339 109.28463364 C436.64186384 109.3009054 424.43573923 109.30609836 412.22959001 109.30860962 C392.42469866 109.31298409 372.6198238 109.32628647 352.81494141 109.34521484 C333.57926516 109.36358006 314.3435934 109.37773343 295.10791016 109.38623047 C293.92171315 109.38675592 292.73551615 109.38728136 291.51337378 109.38782273 C285.56241979 109.39043286 279.61146577 109.39296026 273.66051173 109.39544654 C224.3114235 109.41617132 174.96235318 109.4513901 125.61328125 109.49609375 C125.6289917 108.05327026 125.6289917 108.05327026 125.64501953 106.58129883 C125.6817303 102.94885102 125.70436374 99.31641891 125.72314453 95.68383789 C125.73308753 94.12358832 125.74664672 92.56335679 125.76416016 91.00317383 C126.02771297 66.88809163 120.98085289 46.9171872 104.05859375 28.84765625 C87.8676025 13.27740588 69.67360657 10.01616359 48.12109375 10.0625 C46.24364027 10.05792758 44.36618846 10.0526189 42.48873901 10.0466156 C38.57038537 10.0377266 34.652236 10.04005901 30.73388672 10.05004883 C25.74912275 10.06152837 20.76506831 10.04132078 15.78039742 10.01213169 C11.90753815 9.9936549 8.03484532 9.99408493 4.16195297 9.99976921 C2.32581462 9.99992105 0.48966398 9.9939923 -1.34643173 9.98147774 C-24.80498815 9.84408297 -44.11155939 16.59562303 -59.48046875 35.00390625 Z M50.36328125 186.24609375 C49.6983667 186.59260986 49.03345215 186.93912598 48.34838867 187.29614258 C27.32894915 198.5209043 11.24468886 216.70839955 3.640625 239.3984375 C2.75076539 242.39921967 1.91940271 245.40926814 1.11328125 248.43359375 C0.81558838 249.52188477 0.51789551 250.61017578 0.21118164 251.73144531 C-1.81312794 259.18753415 -3.71019798 266.67232406 -5.54296875 274.17749023 C-7.23540595 281.05301637 -9.17845647 287.84362622 -11.15649414 294.64160156 C-12.86742419 300.56375638 -14.42487609 306.50790071 -15.88671875 312.49609375 C-17.55248007 319.31373559 -19.36730706 326.06875041 -21.32421875 332.80859375 C-24.87540754 345.05446368 -28.05138044 357.39046715 -31.21875 369.74023438 C-34.63611418 383.05859205 -38.14781069 396.33670402 -41.89990234 409.56494141 C-43.92430485 416.73883928 -45.77657699 423.94038233 -47.54345703 431.18139648 C-49.23684588 438.05533673 -51.1788175 444.84486699 -53.15649414 451.64160156 C-54.86742409 457.56375601 -56.42488912 463.50789731 -57.88671875 469.49609375 C-59.78980741 477.28571188 -61.91775251 484.98983761 -64.1496582 492.69116211 C-66.52332853 500.90288187 -68.72351392 509.15453534 -70.85498047 517.43212891 C-71.34211266 519.3229533 -71.83483794 521.21233447 -72.328125 523.1015625 C-76.92952966 540.99591394 -76.8902501 557.81276956 -68.38671875 574.49609375 C-59.70760346 588.68966875 -47.45064144 597.96472039 -31.38671875 602.49609375 C-25.48002794 603.3939228 -19.75171065 603.63973862 -13.78383255 603.62752151 C-12.84283793 603.62957415 -11.90184331 603.63162678 -10.93233371 603.63374162 C-7.77935913 603.63939582 -4.62642845 603.63795632 -1.47344971 603.63653564 C0.81004233 603.63912017 3.09353392 603.64213358 5.37702489 603.64553905 C11.65225687 603.65360176 17.92747742 603.65539821 24.20271397 603.65613651 C30.27535586 603.65779811 36.34799142 603.66411694 42.42063018 603.67021492 C58.6845063 603.68625733 74.94838145 603.69217588 91.21226406 603.69696367 C98.90778122 603.69930104 106.60329765 603.70290381 114.29881424 603.70665905 C140.64803444 603.71949201 166.99725424 603.73021219 193.34647751 603.73366165 C194.99976733 603.73388328 196.65305715 603.73410507 198.30634697 603.734327 C199.96359027 603.73454764 201.62083358 603.73476812 203.27807689 603.73498845 C206.6027023 603.735431 209.92732771 603.73587812 213.25195312 603.73632812 C214.07626378 603.73643752 214.90057443 603.73654691 215.74986419 603.73665961 C242.48253737 603.74029084 269.21518344 603.75621466 295.94784623 603.77951849 C324.22034059 603.80411954 352.49281946 603.81783458 380.76532483 603.81902957 C383.86936013 603.81920102 386.97339543 603.81941645 390.07743073 603.819664 C390.84171501 603.81971977 391.6059993 603.81977554 392.39344372 603.819833 C404.68675986 603.82098308 416.98004815 603.83200129 429.27335489 603.84655106 C441.63072468 603.86092371 453.98805879 603.86414866 466.34543464 603.85611108 C473.0384944 603.85205025 479.73144911 603.85314832 486.42450333 603.86716843 C492.55346755 603.87988959 498.68226758 603.87872533 504.81123152 603.86657771 C507.02653601 603.86461767 509.24185206 603.86771331 511.4571403 603.87642208 C527.26169638 603.97420753 527.26169638 603.97420753 542.61328125 600.49609375 C544.33998047 599.96628906 544.33998047 599.96628906 546.1015625 599.42578125 C569.91391278 590.53320231 587.95536864 574.03761231 598.7421875 550.96484375 C601.92314404 543.70147117 603.86938903 536.0560771 605.85693359 528.39892578 C606.6374028 525.40351622 607.44415941 522.41624505 608.2578125 519.4296875 C610.06390732 512.79070724 611.84084111 506.14412757 613.61328125 499.49609375 C613.93586914 498.28679199 614.25845703 497.07749023 614.59082031 495.83154297 C615.93871051 490.77794291 617.28616551 485.72422761 618.63232422 480.67016602 C621.06210261 471.55058533 623.51117038 462.43634043 625.96875 453.32421875 C628.19820004 445.05205118 630.40839699 436.77484003 632.61328125 428.49609375 C635.68993806 416.9455252 638.78528291 405.40015746 641.8984375 393.859375 C643.05643566 389.56626033 644.20971514 385.27191744 645.359375 380.9765625 C647.9013082 371.48946438 650.45661541 362.00887281 653.13696289 352.55981445 C656.53913841 340.56585299 659.68760714 328.51973372 662.76312256 316.43899536 C664.93303942 307.92248551 667.13877742 299.43035496 669.61328125 290.99609375 C672.11652123 282.35680816 674.54195904 273.69640104 676.86279297 265.00634766 C677.27167307 263.48796934 677.68740976 261.97141647 678.11083984 260.45703125 C683.12379383 242.48287335 683.53965379 224.89607683 675.05078125 207.74609375 C666.51090761 193.448275 654.42455483 184.47555381 638.61328125 179.49609375 C633.44363947 178.39905705 628.4438574 178.35297703 623.18678379 178.36187267 C621.76743878 178.35834433 621.76743878 178.35834433 620.31942013 178.3547447 C617.136565 178.34806744 613.95375082 178.34851254 610.77088928 178.34892273 C608.47063731 178.34562332 606.17038591 178.34189758 603.87013525 178.33778125 C597.53916993 178.32776198 591.20821409 178.32404457 584.87724197 178.32139194 C578.75345926 178.31836983 572.62968303 178.30974206 566.50590507 178.301848 C550.09889141 178.28101381 533.69187596 178.27053524 517.28485216 178.2617184 C509.52104827 178.25751024 501.75724515 178.25228846 493.99344191 178.24703387 C467.41030544 178.22914415 440.82716873 178.21414891 414.24402714 178.20671368 C412.57543064 178.20623892 410.90683414 178.20576303 409.23823765 178.20528601 C408.41077479 178.20504964 407.58331193 178.20481326 406.73077445 178.20456972 C402.53853387 178.20336854 398.3462933 178.20215309 394.15405273 178.20092773 C393.32209437 178.20068758 392.49013601 178.20044743 391.63296679 178.20020001 C364.66537923 178.19230896 337.69783569 178.16888089 310.73026734 178.13637179 C282.21017951 178.102054 253.69011742 178.08236072 225.1700086 178.07906944 C222.03752258 178.07865191 218.90503658 178.07817235 215.77255058 178.07764626 C214.61561443 178.07746147 214.61561443 178.07746147 213.43530582 178.07727295 C201.03646053 178.07494332 188.63766646 178.05929663 176.2388394 178.03880441 C163.76914678 178.01852249 151.2995155 178.01308028 138.82980943 178.02257504 C132.07763046 178.02732373 125.32562721 178.02521844 118.57346916 178.0058136 C112.38686519 177.98818784 106.20054822 177.98917534 100.01394122 178.00471089 C97.78102513 178.0070878 95.5480892 178.00275918 93.31520344 177.99088224 C77.98697132 177.91442862 64.16962977 178.87435286 50.36328125 186.24609375 Z " fill="#063968" transform="translate(201.38671875,197.50390625)"/>
</svg>
